<?xml version="1.0" encoding="UTF-8"?><svg xmlns="http://www.w3.org/2000/svg" xmlns:xlink="http://www.w3.org/1999/xlink" fill-opacity="1" color-rendering="auto" color-interpolation="auto" text-rendering="auto" stroke="black" stroke-linecap="square" width="411" stroke-miterlimit="10" shape-rendering="auto" stroke-opacity="1" fill="black" stroke-dasharray="none" font-weight="normal" stroke-width="1" height="629" font-family="'Dialog'" font-style="normal" stroke-linejoin="miter" font-size="12px" stroke-dashoffset="0" image-rendering="auto">
  <!--Generated by ySVG 2.6-->
  <defs id="genericDefs"/>
  <g>
    <defs id="defs1">
      <clipPath clipPathUnits="userSpaceOnUse" id="clipPath1">
        <path d="M0 0 L411 0 L411 629 L0 629 L0 0 Z"/>
      </clipPath>
      <clipPath clipPathUnits="userSpaceOnUse" id="clipPath2">
        <path d="M750 44 L1161 44 L1161 673 L750 673 L750 44 Z"/>
      </clipPath>
      <clipPath clipPathUnits="userSpaceOnUse" id="clipPath3">
        <path d="M1022 459 L1022 545 L1145 545 L1145 459 Z"/>
      </clipPath>
      <clipPath clipPathUnits="userSpaceOnUse" id="clipPath4">
        <path d="M1033 186 L1033 238 L1133 238 L1133 186 Z"/>
      </clipPath>
      <clipPath clipPathUnits="userSpaceOnUse" id="clipPath5">
        <path d="M1033 312 L1033 395 L1133 395 L1133 312 Z"/>
      </clipPath>
      <clipPath clipPathUnits="userSpaceOnUse" id="clipPath6">
        <path d="M1029 600 L1029 656 L1137 656 L1137 600 Z"/>
      </clipPath>
      <clipPath clipPathUnits="userSpaceOnUse" id="clipPath7">
        <path d="M853 189 L853 258 L965 258 L965 189 Z"/>
      </clipPath>
      <clipPath clipPathUnits="userSpaceOnUse" id="clipPath8">
        <path d="M859 476 L859 528 L959 528 L959 476 Z"/>
      </clipPath>
      <clipPath clipPathUnits="userSpaceOnUse" id="clipPath9">
        <path d="M1033 61 L1033 113 L1133 113 L1133 61 Z"/>
      </clipPath>
      <clipPath clipPathUnits="userSpaceOnUse" id="clipPath10">
        <path d="M853 317 L853 394 L965 394 L965 317 Z"/>
      </clipPath>
    </defs>
    <g fill="white" text-rendering="geometricPrecision" shape-rendering="geometricPrecision" transform="translate(-750,-44)" stroke="white">
      <rect x="750" width="411" height="629" y="44" clip-path="url(#clipPath2)" stroke="none"/>
    </g>
    <g fill="rgb(255,204,0)" text-rendering="geometricPrecision" shape-rendering="geometricPrecision" transform="matrix(1,0,0,1,-750,-44)" stroke="rgb(255,204,0)">
      <rect x="1023" width="121" height="84" y="460" clip-path="url(#clipPath2)" stroke="none"/>
      <rect x="1022" y="459" clip-path="url(#clipPath2)" fill="yellow" width="1" height="86" stroke="none"/>
      <rect x="1023" y="459" clip-path="url(#clipPath2)" fill="yellow" width="121" height="1" stroke="none"/>
      <rect x="1023" y="544" clip-path="url(#clipPath2)" fill="rgb(178,142,0)" width="122" height="1" stroke="none"/>
      <rect x="1144" y="459" clip-path="url(#clipPath2)" fill="rgb(178,142,0)" width="1" height="85" stroke="none"/>
    </g>
    <g font-size="13px" stroke-linecap="butt" transform="matrix(1,0,0,1,-750,-44)" text-rendering="geometricPrecision" font-family="sans-serif" shape-rendering="geometricPrecision" font-weight="bold" stroke-miterlimit="1.45">
      <text x="1072.4319" xml:space="preserve" y="478.417" clip-path="url(#clipPath3)" stroke="none">Tile</text>
    </g>
    <g text-rendering="geometricPrecision" shape-rendering="geometricPrecision" transform="matrix(1,0,0,1,-750,-44)">
      <line y2="487" fill="none" x1="1023" clip-path="url(#clipPath3)" x2="1144" y1="487"/>
      <text stroke-linecap="butt" x="1027" y="505.0541" clip-path="url(#clipPath3)" font-family="sans-serif" stroke="none" stroke-miterlimit="1.45" xml:space="preserve">coordinates: int[][][]</text>
      <text stroke-linecap="butt" x="1027" y="521.3982" clip-path="url(#clipPath3)" font-family="sans-serif" stroke="none" stroke-miterlimit="1.45" xml:space="preserve">poi: Boolean</text>
      <text stroke-linecap="butt" x="1027" y="537.7423" clip-path="url(#clipPath3)" font-family="sans-serif" stroke="none" stroke-miterlimit="1.45" xml:space="preserve">type: TileType</text>
      <line y2="546" fill="none" x1="1023" clip-path="url(#clipPath3)" x2="1144" y1="546"/>
      <rect x="1034" y="187" clip-path="url(#clipPath2)" fill="rgb(255,204,0)" width="98" height="50" stroke="none"/>
      <rect x="1033" y="186" clip-path="url(#clipPath2)" fill="yellow" width="1" height="52" stroke="none"/>
      <rect x="1034" y="186" clip-path="url(#clipPath2)" fill="yellow" width="98" height="1" stroke="none"/>
      <rect x="1034" y="237" clip-path="url(#clipPath2)" fill="rgb(178,142,0)" width="99" height="1" stroke="none"/>
      <rect x="1132" y="186" clip-path="url(#clipPath2)" fill="rgb(178,142,0)" width="1" height="51" stroke="none"/>
    </g>
    <g font-size="13px" stroke-linecap="butt" transform="matrix(1,0,0,1,-750,-44)" text-rendering="geometricPrecision" font-family="sans-serif" shape-rendering="geometricPrecision" font-weight="bold" stroke-miterlimit="1.45">
      <text x="1069.7295" xml:space="preserve" y="205.5573" clip-path="url(#clipPath4)" stroke="none">Map</text>
    </g>
    <g text-rendering="geometricPrecision" shape-rendering="geometricPrecision" transform="matrix(1,0,0,1,-750,-44)">
      <line y2="214" fill="none" x1="1034" clip-path="url(#clipPath4)" x2="1132" y1="214"/>
      <text stroke-linecap="butt" x="1038.8784" y="232.1944" clip-path="url(#clipPath4)" font-family="sans-serif" stroke="none" stroke-miterlimit="1.45" xml:space="preserve">name: String</text>
      <line y2="240" fill="none" x1="1034" clip-path="url(#clipPath4)" x2="1132" y1="240"/>
      <rect x="1034" y="313" clip-path="url(#clipPath2)" fill="rgb(255,204,0)" width="98" height="81" stroke="none"/>
      <rect x="1033" y="312" clip-path="url(#clipPath2)" fill="yellow" width="1" height="83" stroke="none"/>
      <rect x="1034" y="312" clip-path="url(#clipPath2)" fill="yellow" width="98" height="1" stroke="none"/>
      <rect x="1034" y="394" clip-path="url(#clipPath2)" fill="rgb(178,142,0)" width="99" height="1" stroke="none"/>
      <rect x="1132" y="312" clip-path="url(#clipPath2)" fill="rgb(178,142,0)" width="1" height="82" stroke="none"/>
    </g>
    <g font-size="13px" stroke-linecap="butt" transform="matrix(1,0,0,1,-750,-44)" text-rendering="geometricPrecision" font-family="sans-serif" shape-rendering="geometricPrecision" font-weight="bold" stroke-miterlimit="1.45">
      <text x="1061.3267" xml:space="preserve" y="331.3973" clip-path="url(#clipPath5)" stroke="none">Region</text>
    </g>
    <g text-rendering="geometricPrecision" shape-rendering="geometricPrecision" transform="matrix(1,0,0,1,-750,-44)">
      <line y2="340" fill="none" x1="1034" clip-path="url(#clipPath5)" x2="1132" y1="340"/>
      <text stroke-linecap="butt" x="1038.8784" y="358.0344" clip-path="url(#clipPath5)" font-family="sans-serif" stroke="none" stroke-miterlimit="1.45" xml:space="preserve">name: String</text>
      <text stroke-linecap="butt" x="1038.8784" y="374.3785" clip-path="url(#clipPath5)" font-family="sans-serif" stroke="none" stroke-miterlimit="1.45" xml:space="preserve">features: String</text>
      <text stroke-linecap="butt" x="1038.8784" y="390.7227" clip-path="url(#clipPath5)" font-family="sans-serif" stroke="none" stroke-miterlimit="1.45" xml:space="preserve">lore: String</text>
      <line y2="399" fill="none" x1="1034" clip-path="url(#clipPath5)" x2="1132" y1="399"/>
      <rect x="1030" y="601" clip-path="url(#clipPath2)" fill="rgb(255,204,0)" width="106" height="54" stroke="none"/>
      <rect x="1029" y="600" clip-path="url(#clipPath2)" fill="yellow" width="1" height="56" stroke="none"/>
      <rect x="1030" y="600" clip-path="url(#clipPath2)" fill="yellow" width="106" height="1" stroke="none"/>
      <rect x="1030" y="655" clip-path="url(#clipPath2)" fill="rgb(178,142,0)" width="107" height="1" stroke="none"/>
      <rect x="1136" y="600" clip-path="url(#clipPath2)" fill="rgb(178,142,0)" width="1" height="55" stroke="none"/>
      <text stroke-linecap="butt" x="1033.5081" y="618.4553" clip-path="url(#clipPath6)" font-family="sans-serif" stroke="none" stroke-miterlimit="1.45" xml:space="preserve">&lt;&lt;Enumeration&gt;&gt;</text>
    </g>
    <g font-size="13px" stroke-linecap="butt" transform="matrix(1,0,0,1,-750,-44)" text-rendering="geometricPrecision" font-family="sans-serif" shape-rendering="geometricPrecision" font-weight="bold" stroke-miterlimit="1.45">
      <text x="1057.0269" xml:space="preserve" y="644.8683" clip-path="url(#clipPath6)" stroke="none">TileType</text>
    </g>
    <g fill="rgb(255,204,0)" text-rendering="geometricPrecision" shape-rendering="geometricPrecision" transform="matrix(1,0,0,1,-750,-44)" stroke="rgb(255,204,0)">
      <rect x="854" width="110" height="67" y="190" clip-path="url(#clipPath2)" stroke="none"/>
      <rect x="853" y="189" clip-path="url(#clipPath2)" fill="yellow" width="1" height="69" stroke="none"/>
      <rect x="854" y="189" clip-path="url(#clipPath2)" fill="yellow" width="110" height="1" stroke="none"/>
      <rect x="854" y="257" clip-path="url(#clipPath2)" fill="rgb(178,142,0)" width="111" height="1" stroke="none"/>
      <rect x="964" y="189" clip-path="url(#clipPath2)" fill="rgb(178,142,0)" width="1" height="68" stroke="none"/>
    </g>
    <g font-size="13px" stroke-linecap="butt" transform="matrix(1,0,0,1,-750,-44)" text-rendering="geometricPrecision" font-family="sans-serif" shape-rendering="geometricPrecision" font-weight="bold" stroke-miterlimit="1.45">
      <text x="894.1304" xml:space="preserve" y="208.1045" clip-path="url(#clipPath7)" stroke="none">User</text>
    </g>
    <g text-rendering="geometricPrecision" shape-rendering="geometricPrecision" transform="matrix(1,0,0,1,-750,-44)">
      <line y2="216" fill="none" x1="854" clip-path="url(#clipPath7)" x2="964" y1="216"/>
      <text stroke-linecap="butt" x="858.0784" y="234.7416" clip-path="url(#clipPath7)" font-family="sans-serif" stroke="none" stroke-miterlimit="1.45" xml:space="preserve">username: String</text>
      <text stroke-linecap="butt" x="858.0784" y="251.0857" clip-path="url(#clipPath7)" font-family="sans-serif" stroke="none" stroke-miterlimit="1.45" xml:space="preserve">password: String</text>
      <line y2="259" fill="none" x1="854" clip-path="url(#clipPath7)" x2="964" y1="259"/>
      <rect x="860" y="477" clip-path="url(#clipPath2)" fill="rgb(255,204,0)" width="98" height="50" stroke="none"/>
      <rect x="859" y="476" clip-path="url(#clipPath2)" fill="yellow" width="1" height="52" stroke="none"/>
      <rect x="860" y="476" clip-path="url(#clipPath2)" fill="yellow" width="98" height="1" stroke="none"/>
      <rect x="860" y="527" clip-path="url(#clipPath2)" fill="rgb(178,142,0)" width="99" height="1" stroke="none"/>
      <rect x="958" y="476" clip-path="url(#clipPath2)" fill="rgb(178,142,0)" width="1" height="51" stroke="none"/>
    </g>
    <g font-size="13px" stroke-linecap="butt" transform="matrix(1,0,0,1,-750,-44)" text-rendering="geometricPrecision" font-family="sans-serif" shape-rendering="geometricPrecision" font-weight="bold" stroke-miterlimit="1.45">
      <text x="885.6235" xml:space="preserve" y="495.3642" clip-path="url(#clipPath8)" stroke="none">Faction</text>
    </g>
    <g text-rendering="geometricPrecision" shape-rendering="geometricPrecision" transform="matrix(1,0,0,1,-750,-44)">
      <line y2="504" fill="none" x1="860" clip-path="url(#clipPath8)" x2="958" y1="504"/>
      <text stroke-linecap="butt" x="864.1584" y="522.0013" clip-path="url(#clipPath8)" font-family="sans-serif" stroke="none" stroke-miterlimit="1.45" xml:space="preserve">name: String</text>
      <line y2="530" fill="none" x1="860" clip-path="url(#clipPath8)" x2="958" y1="530"/>
      <rect x="1034" y="62" clip-path="url(#clipPath2)" fill="rgb(255,204,0)" width="98" height="50" stroke="none"/>
      <rect x="1033" y="61" clip-path="url(#clipPath2)" fill="yellow" width="1" height="52" stroke="none"/>
      <rect x="1034" y="61" clip-path="url(#clipPath2)" fill="yellow" width="98" height="1" stroke="none"/>
      <rect x="1034" y="112" clip-path="url(#clipPath2)" fill="rgb(178,142,0)" width="99" height="1" stroke="none"/>
      <rect x="1132" y="61" clip-path="url(#clipPath2)" fill="rgb(178,142,0)" width="1" height="51" stroke="none"/>
    </g>
    <g font-size="13px" stroke-linecap="butt" transform="matrix(1,0,0,1,-750,-44)" text-rendering="geometricPrecision" font-family="sans-serif" shape-rendering="geometricPrecision" font-weight="bold" stroke-miterlimit="1.45">
      <text x="1051.0858" xml:space="preserve" y="80.1173" clip-path="url(#clipPath9)" stroke="none">Campaign</text>
    </g>
    <g text-rendering="geometricPrecision" shape-rendering="geometricPrecision" transform="matrix(1,0,0,1,-750,-44)">
      <line y2="88" fill="none" x1="1034" clip-path="url(#clipPath9)" x2="1132" y1="88"/>
      <text stroke-linecap="butt" x="1038.8784" y="106.7544" clip-path="url(#clipPath9)" font-family="sans-serif" stroke="none" stroke-miterlimit="1.45" xml:space="preserve">name: String</text>
      <line y2="115" fill="none" x1="1034" clip-path="url(#clipPath9)" x2="1132" y1="115"/>
      <rect x="854" y="318" clip-path="url(#clipPath2)" fill="rgb(255,204,0)" width="110" height="75" stroke="none"/>
      <rect x="853" y="317" clip-path="url(#clipPath2)" fill="yellow" width="1" height="77" stroke="none"/>
      <rect x="854" y="317" clip-path="url(#clipPath2)" fill="yellow" width="110" height="1" stroke="none"/>
      <rect x="854" y="393" clip-path="url(#clipPath2)" fill="rgb(178,142,0)" width="111" height="1" stroke="none"/>
      <rect x="964" y="317" clip-path="url(#clipPath2)" fill="rgb(178,142,0)" width="1" height="76" stroke="none"/>
      <text stroke-linecap="butt" x="858.7881" y="335.4228" clip-path="url(#clipPath10)" font-family="sans-serif" stroke="none" stroke-miterlimit="1.45" xml:space="preserve">&lt;&lt;Enumeration&gt;&gt;</text>
    </g>
    <g font-size="13px" stroke-linecap="butt" transform="matrix(1,0,0,1,-750,-44)" text-rendering="geometricPrecision" font-family="sans-serif" shape-rendering="geometricPrecision" font-weight="bold" stroke-miterlimit="1.45">
      <text x="879.9994" xml:space="preserve" y="361.8358" clip-path="url(#clipPath10)" stroke="none">UserRole</text>
    </g>
    <g text-rendering="geometricPrecision" shape-rendering="geometricPrecision" transform="matrix(1,0,0,1,-750,-44)">
      <line y2="370" fill="none" x1="854" clip-path="url(#clipPath10)" x2="964" y1="370"/>
      <text stroke-linecap="butt" x="858.0784" y="388.4729" clip-path="url(#clipPath10)" font-family="sans-serif" stroke="none" stroke-miterlimit="1.45" xml:space="preserve">SYS_ADMIN</text>
      <line y2="396" fill="none" x1="854" clip-path="url(#clipPath10)" x2="964" y1="396"/>
      <path fill="rgb(255,204,0)" d="M849.5584 551.5872 L953.7584 551.5872 L953.7584 566.5872 L968.7584 566.5872 L968.7584 604.5472 L849.5584 604.5472 Z" clip-path="url(#clipPath2)" stroke="none"/>
      <path fill="white" d="M953.7584 551.5872 L953.7584 566.5872 L968.7584 566.5872 Z" clip-path="url(#clipPath2)" fill-rule="evenodd" stroke="none"/>
      <path fill="none" stroke-miterlimit="1.45" d="M849.5584 551.5872 L953.7584 551.5872 L953.7584 566.5872 L968.7584 566.5872 L968.7584 604.5472 L849.5584 604.5472 Z" clip-path="url(#clipPath2)" stroke-linecap="butt"/>
      <path fill="none" stroke-miterlimit="1.45" d="M953.7584 551.5872 L953.7584 566.5872 L968.7584 566.5872 Z" fill-rule="evenodd" clip-path="url(#clipPath2)" stroke-linecap="butt"/>
      <text stroke-linecap="butt" x="856.748" y="574.5511" clip-path="url(#clipPath2)" font-family="sans-serif" stroke="none" stroke-miterlimit="1.45" xml:space="preserve">'neutral' should be</text>
      <text stroke-linecap="butt" x="868.0341" y="590.8953" clip-path="url(#clipPath2)" font-family="sans-serif" stroke="none" stroke-miterlimit="1.45" xml:space="preserve">its own faction</text>
      <path fill="rgb(255,204,0)" d="M765.7184 59.3003 L968.4784 59.3003 L968.4784 74.3003 L983.4784 74.3003 L983.4784 116.1003 L765.7184 116.1003 Z" clip-path="url(#clipPath2)" stroke="none"/>
      <path fill="white" d="M968.4784 59.3003 L968.4784 74.3003 L983.4784 74.3003 Z" clip-path="url(#clipPath2)" fill-rule="evenodd" stroke="none"/>
      <path fill="none" stroke-miterlimit="1.45" d="M765.7184 59.3003 L968.4784 59.3003 L968.4784 74.3003 L983.4784 74.3003 L983.4784 116.1003 L765.7184 116.1003 Z" clip-path="url(#clipPath2)" stroke-linecap="butt"/>
      <path fill="none" stroke-miterlimit="1.45" d="M968.4784 59.3003 L968.4784 74.3003 L983.4784 74.3003 Z" fill-rule="evenodd" clip-path="url(#clipPath2)" stroke-linecap="butt"/>
      <text stroke-linecap="butt" x="781.7238" y="76.0122" clip-path="url(#clipPath2)" font-family="sans-serif" stroke="none" stroke-miterlimit="1.45" xml:space="preserve">Each object is associated with its </text>
      <text stroke-linecap="butt" x="785.7438" y="92.3564" clip-path="url(#clipPath2)" font-family="sans-serif" stroke="none" stroke-miterlimit="1.45" xml:space="preserve">creator. Those associations are </text>
      <text stroke-linecap="butt" x="768.3317" y="108.7005" clip-path="url(#clipPath2)" font-family="sans-serif" stroke="none" stroke-miterlimit="1.45" xml:space="preserve">not shown to keep this diagram clear.</text>
      <path fill="none" stroke-miterlimit="1.45" d="M1083.8784 246.5873 L1083.8784 312.5246" clip-path="url(#clipPath2)" stroke-linecap="butt"/>
      <path stroke-miterlimit="1.45" d="M1083.8784 239.5873 L1088.8784 246.5873 L1083.8784 253.5873 L1078.8784 246.5873 Z" clip-path="url(#clipPath2)" stroke-linecap="butt" stroke="none"/>
      <text stroke-linecap="butt" x="1092.4774" y="259.4484" clip-path="url(#clipPath2)" font-family="sans-serif" stroke="none" stroke-miterlimit="1.45" xml:space="preserve">1</text>
      <text stroke-linecap="butt" x="1092.4774" y="305.0884" clip-path="url(#clipPath2)" font-family="sans-serif" stroke="none" stroke-miterlimit="1.45" xml:space="preserve">1..*</text>
      <path fill="none" stroke-miterlimit="1.45" d="M1083.8784 402.4968 L1083.8784 459.5316" clip-path="url(#clipPath2)" stroke-linecap="butt"/>
      <path stroke-miterlimit="1.45" d="M1083.8784 395.4968 L1088.8784 402.4968 L1083.8784 409.4968 L1078.8784 402.4968 Z" clip-path="url(#clipPath2)" stroke-linecap="butt" stroke="none"/>
      <text stroke-linecap="butt" x="1095.0375" y="419.0084" clip-path="url(#clipPath2)" font-family="sans-serif" stroke="none" stroke-miterlimit="1.45" xml:space="preserve">1</text>
      <text stroke-linecap="butt" x="1095.0375" y="452.9284" clip-path="url(#clipPath2)" font-family="sans-serif" stroke="none" stroke-miterlimit="1.45" xml:space="preserve">1..*</text>
      <path fill="none" stroke-miterlimit="1.45" stroke-dasharray="6,2" d="M1083.8784 546.3795 L1083.8784 595.6574" clip-path="url(#clipPath2)" stroke-linecap="butt"/>
      <path stroke-miterlimit="1.45" stroke-dasharray="6,2" d="M1083.8784 599.6574 L1089.8784 587.6574 L1083.8784 599.6574 L1077.8784 587.6574 Z" clip-path="url(#clipPath2)" stroke-linecap="butt" stroke="none"/>
      <path fill="none" d="M1083.8784 599.6574 L1089.8784 587.6574 L1083.8784 599.6574 L1077.8784 587.6574 Z" clip-path="url(#clipPath2)"/>
      <path fill="none" stroke-miterlimit="1.45" d="M1021.9842 502.9472 L959.1532 502.9472" clip-path="url(#clipPath2)" stroke-linecap="butt"/>
      <text stroke-linecap="butt" x="966.1584" y="507.6032" clip-path="url(#clipPath2)" font-family="sans-serif" stroke="none" stroke-miterlimit="1.45" xml:space="preserve">1</text>
      <text stroke-linecap="butt" x="1008.136" y="507.6032" clip-path="url(#clipPath2)" font-family="sans-serif" stroke="none" stroke-miterlimit="1.45" xml:space="preserve">1</text>
      <path fill="none" stroke-miterlimit="1.45" d="M1083.8784 121.1909 L1083.8784 186.6153" clip-path="url(#clipPath2)" stroke-linecap="butt"/>
      <path stroke-miterlimit="1.45" d="M1083.8784 114.1909 L1088.8784 121.1909 L1083.8784 128.1909 L1078.8784 121.1909 Z" clip-path="url(#clipPath2)" stroke-linecap="butt" stroke="none"/>
      <text stroke-linecap="butt" x="1093.7574" y="139.9684" clip-path="url(#clipPath2)" font-family="sans-serif" stroke="none" stroke-miterlimit="1.45" xml:space="preserve">1</text>
      <text stroke-linecap="butt" x="1095.6775" y="181.5684" clip-path="url(#clipPath2)" font-family="sans-serif" stroke="none" stroke-miterlimit="1.45" xml:space="preserve">0..*</text>
      <path fill="none" stroke-miterlimit="1.45" d="M1049.9453 114.1731 L953.7386 189.2284" clip-path="url(#clipPath2)" stroke-linecap="butt"/>
      <text stroke-linecap="butt" x="1006.9703" y="133.513" clip-path="url(#clipPath2)" font-family="sans-serif" stroke="none" stroke-miterlimit="1.45" xml:space="preserve">1..*</text>
      <text stroke-linecap="butt" x="946.3451" y="178.3935" clip-path="url(#clipPath2)" font-family="sans-serif" stroke="none" stroke-miterlimit="1.45" xml:space="preserve">0..*</text>
      <path fill="none" stroke-miterlimit="1.45" stroke-dasharray="6,2" d="M909.1584 258.7947 L909.1584 312.5557" clip-path="url(#clipPath2)" stroke-linecap="butt"/>
      <path stroke-miterlimit="1.45" stroke-dasharray="6,2" d="M909.1584 316.5557 L915.1584 304.5557 L909.1584 316.5557 L903.1584 304.5557 Z" clip-path="url(#clipPath2)" stroke-linecap="butt" stroke="none"/>
      <path fill="none" d="M909.1584 316.5557 L915.1584 304.5557 L909.1584 316.5557 L903.1584 304.5557 Z" clip-path="url(#clipPath2)"/>
    </g>
  </g>
</svg>
